<?xml version="1.0" encoding="utf-8"?>
<!-- Generator: Adobe Illustrator 15.0.0, SVG Export Plug-In . SVG Version: 6.00 Build 0)  -->
<!DOCTYPE svg PUBLIC "-//W3C//DTD SVG 1.1//EN" "http://www.w3.org/Graphics/SVG/1.1/DTD/svg11.dtd">
<svg version="1.1" id="レイヤー_1" xmlns="http://www.w3.org/2000/svg" xmlns:xlink="http://www.w3.org/1999/xlink" x="0px"
	 y="0px" width="24.279px" height="18.676px" viewBox="0 0 24.279 18.676" enable-background="new 0 0 24.279 18.676"
	 xml:space="preserve">
<path d="M1.5,11.458h17.658l-5.279,5.278c-0.586,0.585-0.586,1.535,0,2.121s1.535,0.586,2.121,0l7.84-7.838
	c0.282-0.282,0.44-0.663,0.44-1.061c0-0.398-0.158-0.781-0.439-1.062l-7.84-7.838c-0.293-0.293-0.677-0.438-1.061-0.438
	c-0.385,0-0.769,0.146-1.062,0.438c-0.586,0.586-0.586,1.534,0,2.121l5.279,5.278H1.5c-0.828,0-1.5,0.672-1.5,1.5
	C0,10.787,0.672,11.458,1.5,11.458z"/>
</svg>
