<svg xmlns="http://www.w3.org/2000/svg" width="189.879" height="43.418" viewBox="0 0 189.879 43.418">
  <path id="パス_16077" data-name="パス 16077" d="M-94.456-1.7V-7.5a11.266,11.266,0,0,0,2.388,1.582,19.345,19.345,0,0,0,2.93,1.187,23.322,23.322,0,0,0,3.091.747,17.233,17.233,0,0,0,2.871.264q4.541,0,6.782-1.685a5.7,5.7,0,0,0,2.241-4.849,5.693,5.693,0,0,0-.747-2.959,8.416,8.416,0,0,0-2.065-2.3,20.5,20.5,0,0,0-3.12-1.992q-1.8-.952-3.882-2.007-2.2-1.113-4.1-2.256a17.773,17.773,0,0,1-3.311-2.52,10.51,10.51,0,0,1-2.212-3.12,9.658,9.658,0,0,1-.806-4.087,9.61,9.61,0,0,1,1.26-5,10.805,10.805,0,0,1,3.311-3.5,15.009,15.009,0,0,1,4.673-2.051,21.4,21.4,0,0,1,5.347-.674q6.211,0,9.053,1.494v5.537a16.409,16.409,0,0,0-9.551-2.578,15.708,15.708,0,0,0-3.223.337,9.1,9.1,0,0,0-2.871,1.1,6.36,6.36,0,0,0-2.051,1.963,5.21,5.21,0,0,0-.791,2.93,6.032,6.032,0,0,0,.6,2.783,6.822,6.822,0,0,0,1.772,2.139,17.654,17.654,0,0,0,2.856,1.875q1.685.908,3.882,1.992,2.256,1.113,4.277,2.344a19.551,19.551,0,0,1,3.545,2.725,12.108,12.108,0,0,1,2.417,3.311A9.306,9.306,0,0,1-69-10.605a10.55,10.55,0,0,1-1.216,5.259,9.978,9.978,0,0,1-3.281,3.5A14.331,14.331,0,0,1-78.255.1a26.073,26.073,0,0,1-5.684.6A23.161,23.161,0,0,1-86.4.542Q-87.864.381-89.388.073a24.384,24.384,0,0,1-2.886-.762A8.98,8.98,0,0,1-94.456-1.7Zm64.682-35.859H-41.9V0h-4.922V-37.559h-12.1v-4.453h29.15ZM-3.032.7q-8.936,0-14.312-5.889T-22.72-20.508q0-10.137,5.479-16.172t14.912-6.035q8.7,0,14.019,5.859t5.317,15.322q0,10.283-5.449,16.26T-3.032.7Zm.352-38.965a13.544,13.544,0,0,0-10.752,4.775q-4.131,4.775-4.131,12.539t4.028,12.5a13.138,13.138,0,0,0,10.5,4.731q6.914,0,10.9-4.512t3.984-12.627q0-8.32-3.867-12.861T-2.681-38.262ZM61.386,0H55.526L48.5-11.777a25.651,25.651,0,0,0-1.875-2.8,10.689,10.689,0,0,0-1.86-1.89,6.444,6.444,0,0,0-2.051-1.069,8.433,8.433,0,0,0-2.476-.337H36.19V0H31.269V-42.012H43.808a17.87,17.87,0,0,1,5.083.688,11.373,11.373,0,0,1,4.043,2.095,9.734,9.734,0,0,1,2.681,3.5,11.609,11.609,0,0,1,.967,4.907,11.817,11.817,0,0,1-.659,4.028,10.521,10.521,0,0,1-1.875,3.267,11.366,11.366,0,0,1-2.93,2.446,14.957,14.957,0,0,1-3.853,1.567v.117A8.861,8.861,0,0,1,49.1-18.325,10.077,10.077,0,0,1,50.575-16.9a18.821,18.821,0,0,1,1.392,1.86Q52.655-14,53.5-12.627ZM36.19-37.559v15.234h6.68a10.131,10.131,0,0,0,3.413-.557,7.9,7.9,0,0,0,2.71-1.6,7.241,7.241,0,0,0,1.787-2.549,8.533,8.533,0,0,0,.645-3.384,6.586,6.586,0,0,0-2.183-5.259q-2.183-1.89-6.313-1.89ZM95.423,0H73.157V-42.012H94.485v4.453H78.079v13.975H93.255v4.424H78.079V-4.453H95.423Z" transform="translate(94.456 42.715)"/>
</svg>
