<?xml version="1.0" encoding="utf-8"?>
<!-- Generator: Adobe Illustrator 15.0.0, SVG Export Plug-In . SVG Version: 6.00 Build 0)  -->
<!DOCTYPE svg PUBLIC "-//W3C//DTD SVG 1.1//EN" "http://www.w3.org/Graphics/SVG/1.1/DTD/svg11.dtd">
<svg version="1.1" id="レイヤー_1" xmlns="http://www.w3.org/2000/svg" xmlns:xlink="http://www.w3.org/1999/xlink" x="0px"
	 y="0px" width="746.926px" height="747.92px" viewBox="0 0 746.926 747.92" enable-background="new 0 0 746.926 747.92"
	 xml:space="preserve">
<path d="M497.223,356.251l-100,102.778V236.807c0-11.111-8.334-22.224-22.223-22.224c-13.89,0-22.224,8.333-22.224,22.224v225
	l-100-102.777c-8.333-8.334-22.222-8.334-30.556,0c-8.333,8.333-8.333,22.222,0,30.556L375,545.141l152.776-155.556
	c8.334-8.334,8.334-22.223,0-30.556C519.444,347.918,505.556,347.918,497.223,356.251z"/>
<path d="M741.666,300.695c-2.777-25-11.11-50-19.443-72.223c-8.334-22.224-22.223-44.443-33.334-63.89
	c-13.889-19.442-30.557-38.89-47.222-55.556C625,92.36,605.556,75.693,586.111,61.805c-19.444-13.891-41.667-25-63.891-33.333
	s-47.224-16.667-69.443-22.224c-47.224-8.334-97.224-8.334-147.224,0c-27.777,2.777-50,11.11-75,19.443
	c-22.222,11.111-44.444,22.223-63.889,36.111c-19.444,13.889-38.89,27.778-55.556,47.223
	c-19.444,16.666-33.333,36.111-47.223,55.557c-13.889,19.443-25,41.666-36.111,63.89c-8.333,22.222-16.667,47.222-19.443,72.222
	C2.778,322.918,0,347.918,0,372.918s2.777,50,8.333,72.223c2.777,25,11.11,47.224,19.443,72.224
	c8.333,22.224,22.223,44.442,33.333,63.89c13.89,19.442,30.556,38.892,47.223,55.558s36.11,33.334,55.555,47.224
	c19.445,13.889,41.667,25,63.889,33.333c22.223,8.333,47.223,16.667,69.444,22.224c25,5.558,50,8.332,72.222,8.332
	s50-2.774,72.223-8.332c25-5.557,47.223-11.109,69.444-22.224c22.222-8.333,44.442-22.222,63.889-33.333
	c19.444-13.889,38.89-30.558,55.557-47.224s33.333-36.11,47.224-55.558c13.891-19.442,25-41.666,33.334-63.89
	c8.333-22.224,16.666-47.224,22.222-69.443c5.557-25,8.334-50,8.334-72.225C750,347.918,747.223,322.918,741.666,300.695z
	 M702.777,436.807c-5.557,22.224-11.11,41.668-19.444,63.89c-8.332,19.444-19.443,38.892-30.556,58.334
	c-13.891,16.666-27.776,33.334-41.666,50c-16.667,16.666-33.334,30.558-50,41.666c-19.444,11.11-36.111,22.225-58.334,30.558
	c-22.224,8.334-41.666,13.893-63.891,19.442c-41.666,8.334-86.109,8.334-130.557,0c-22.222-5.556-41.666-11.108-63.889-19.442
	c-22.222-8.333-38.889-19.442-58.333-30.558c-13.889-13.89-30.556-27.775-47.223-41.666c-16.667-16.666-30.555-33.334-41.667-50
	c-11.111-19.442-22.222-38.89-30.556-58.334c-8.333-19.442-13.89-41.666-19.444-63.89c-5.556-22.222-5.556-44.442-5.556-63.889
	c0-22.223,2.777-44.444,5.556-63.889c5.556-22.223,11.111-41.667,19.444-63.889c8.333-19.445,19.444-38.892,30.556-58.334
	c13.889-16.666,27.778-33.334,41.667-50c16.667-13.891,33.333-27.777,50-41.666c19.445-11.111,38.889-22.225,58.333-30.558
	c19.444-8.334,41.667-13.89,63.891-19.442c22.222-5.558,44.442-5.558,63.889-5.558c19.447,0,44.444,2.777,63.89,5.558
	c22.225,5.555,41.667,11.108,63.891,19.442c19.443,8.333,38.891,19.444,58.334,30.558c16.666,13.889,33.333,27.775,50,41.666
	c16.666,13.889,30.557,33.334,41.666,50c11.109,19.442,22.224,36.109,30.557,58.334c8.334,19.442,13.89,41.666,19.443,63.889
	c5.557,22.222,5.557,44.443,5.557,63.889C708.332,395.142,705.556,417.362,702.777,436.807z"/>
</svg>
