<?xml version="1.0" encoding="utf-8"?>
<!-- Generator: Adobe Illustrator 16.0.4, SVG Export Plug-In . SVG Version: 6.00 Build 0)  -->
<!DOCTYPE svg PUBLIC "-//W3C//DTD SVG 1.1//EN" "http://www.w3.org/Graphics/SVG/1.1/DTD/svg11.dtd">
<svg version="1.1" id="レイヤー_1" xmlns="http://www.w3.org/2000/svg" xmlns:xlink="http://www.w3.org/1999/xlink" x="0px"
	 y="0px" width="746.926px" height="747.92px" viewBox="0 0 746.926 747.92" enable-background="new 0 0 746.926 747.92"
	 xml:space="preserve">
<path fill="#FFFFFF" d="M497.223,356.251l-100,102.778V236.807c0-11.111-8.334-22.224-22.223-22.224s-22.223,8.333-22.223,22.224
	v225l-100-102.777c-8.333-8.334-22.222-8.334-30.556,0c-8.333,8.333-8.333,22.222,0,30.556L375,545.141l152.777-155.556
	c8.334-8.334,8.334-22.223,0-30.556C519.444,347.918,505.556,347.918,497.223,356.251z"/>
<path fill="#FFFFFF" d="M741.667,300.695c-2.778-25-11.111-50-19.444-72.223c-8.334-22.224-22.223-44.443-33.334-63.89
	c-13.889-19.442-30.556-38.89-47.222-55.556C625,92.36,605.556,75.693,586.111,61.805c-19.445-13.891-41.667-25-63.891-33.333
	c-22.223-8.333-47.223-16.667-69.443-22.224c-47.224-8.334-97.224-8.334-147.224,0c-27.777,2.777-50,11.11-75,19.443
	c-22.222,11.111-44.444,22.223-63.889,36.111c-19.444,13.889-38.889,27.778-55.555,47.223
	c-19.445,16.666-33.333,36.111-47.223,55.557c-13.889,19.443-25,41.666-36.111,63.89c-8.333,22.222-16.667,47.222-19.444,72.222
	C2.778,322.918,0,347.918,0,372.918s2.778,50,8.333,72.223c2.778,25,11.111,47.223,19.444,72.223
	c8.333,22.224,22.222,44.443,33.333,63.89c13.889,19.442,30.555,38.892,47.222,55.558s36.111,33.334,55.555,47.223
	c19.445,13.889,41.667,25,63.889,33.333c22.222,8.333,47.222,16.667,69.444,22.224c25,5.557,50,8.332,72.222,8.332
	c22.222,0,50-2.775,72.223-8.332c25-5.557,47.222-11.11,69.444-22.224c22.222-8.333,44.442-22.222,63.889-33.333
	c19.444-13.889,38.889-30.557,55.556-47.223s33.333-36.111,47.224-55.558c13.89-19.442,25-41.666,33.334-63.89
	c8.333-22.223,16.666-47.223,22.222-69.443c5.556-25,8.334-50,8.334-72.225C750,347.918,747.223,322.918,741.667,300.695z
	 M702.777,436.807c-5.557,22.223-11.11,41.668-19.444,63.889c-8.333,19.445-19.444,38.892-30.556,58.334
	c-13.891,16.666-27.777,33.334-41.666,50c-16.667,16.666-33.334,30.558-50,41.666c-19.444,11.111-36.111,22.225-58.334,30.558
	c-22.224,8.334-41.666,13.892-63.891,19.442c-41.666,8.334-86.109,8.334-130.556,0c-22.222-5.555-41.667-11.108-63.889-19.442
	c-22.222-8.333-38.889-19.442-58.333-30.558c-13.889-13.889-30.556-27.775-47.223-41.666c-16.667-16.666-30.555-33.334-41.667-50
	c-11.111-19.442-22.222-38.889-30.556-58.334c-8.333-19.442-13.889-41.666-19.444-63.889c-5.556-22.222-5.556-44.443-5.556-63.889
	c0-22.223,2.778-44.444,5.556-63.889c5.556-22.223,11.111-41.667,19.444-63.889c8.333-19.445,19.445-38.892,30.556-58.334
	c13.889-16.666,27.778-33.334,41.667-50c16.667-13.891,33.333-27.777,50-41.666c19.445-11.111,38.889-22.225,58.333-30.558
	c19.444-8.334,41.667-13.89,63.891-19.442c22.222-5.558,44.442-5.558,63.889-5.558s44.444,2.777,63.889,5.558
	c22.225,5.555,41.667,11.108,63.891,19.442c19.443,8.333,38.89,19.444,58.334,30.558c16.666,13.889,33.333,27.775,50,41.666
	c16.666,13.889,30.556,33.334,41.666,50c11.109,19.442,22.223,36.109,30.556,58.334c8.334,19.442,13.89,41.666,19.444,63.889
	c5.556,22.222,5.556,44.443,5.556,63.889C708.333,395.141,705.556,417.362,702.777,436.807z"/>
</svg>
