<?xml version="1.0" encoding="utf-8"?>
<!-- Generator: Adobe Illustrator 28.1.0, SVG Export Plug-In . SVG Version: 6.00 Build 0)  -->
<svg version="1.1" id="レイヤー_1" xmlns="http://www.w3.org/2000/svg" xmlns:xlink="http://www.w3.org/1999/xlink" x="0px"
	 y="0px" viewBox="0 0 104.8 76.7" style="enable-background:new 0 0 104.8 76.7;" xml:space="preserve">
<style type="text/css">
	.st0{fill:#6DAD19;}
	.st1{fill:#8E8E8F;}
	.st2{fill:#1A1311;}
</style>
<path id="パス_12202" class="st0" d="M80.8,36.1c0,2.2-0.4,4.4-1.3,6.4h22c0.9-4.9,0.7-10-0.4-14.9c-5.9,1.9-12.3-1.3-14.3-7.2
	c-1.4-4.3-0.1-8.9,3.2-11.9C86.3,5,82,2.3,77.3,0.6l-11,19.1C74.6,20.7,80.7,27.8,80.8,36.1"/>
<path id="パス_12203" class="st1" d="M53.2,26.2c-5.2,0-10-2.4-13.2-6.5L29,38.8c3.8,3.2,8.3,5.6,13.1,7.1
	c1.3-6.1,7.3-10,13.4-8.8c4.4,0.9,7.8,4.4,8.8,8.8c4.8-1.5,9.2-3.9,13.1-7.1l-11-19.1C63.2,23.8,58.3,26.2,53.2,26.2"/>
<path id="パス_12204" class="st0" d="M18.5,22.5c-2.7,4.6-8.2,6.8-13.3,5.1c-1.1,4.9-1.3,9.9-0.4,14.9h22
	c-3.5-8.4,0.4-18.1,8.8-21.6c1.4-0.6,2.8-1,4.3-1.2L29,0.6C24.3,2.3,20,5,16.3,8.4C20.3,12,21.2,17.9,18.5,22.5"/>
<rect id="長方形_755" x="62.8" y="59.5" class="st2" width="2.8" height="16.7"/>
<path id="パス_12205" class="st2" d="M25.6,59.5v16.7h11.1v-2.8h-8.4v-5.6h7V65h-7v-2.8h8.4v-2.8H25.6z"/>
<path id="パス_12206" class="st2" d="M80.2,60.7c-1.6-0.9-3.3-1.3-5.1-1.2h-1.3v0H71v16.7h4.8c1.4,0,2.8-0.3,4.1-1
	c1.3-0.7,2.3-1.7,3-2.9c0.8-1.3,1.2-2.8,1.1-4.3c0-1.4-0.3-2.8-0.9-4.1C82.6,62.6,81.5,61.5,80.2,60.7 M80.3,70.8
	c-0.5,0.8-1.1,1.4-2,1.8c-0.9,0.4-1.9,0.7-2.9,0.6h-1.6V62.5h1.8c0.9,0,1.8,0.2,2.7,0.6c0.8,0.4,1.5,1.1,2,1.8
	C81.3,66.7,81.3,68.9,80.3,70.8"/>
<path id="パス_12207" class="st2" d="M95.6,59.3h-3l-6.5,16.9h3l1.8-4.6h6.4l1.8,4.6h3L95.6,59.3L95.6,59.3z M92,68.8l2.1-5.6
	l2.1,5.6H92z"/>
<path id="パス_12208" class="st2" d="M17.4,59.5L17.4,59.5c-0.6,2.8-3.4,4.7-6.3,4.1c-2-0.4-3.6-2-4.1-4.1H4.3v16.7H7V65.3
	l5.2,3.5l5.2-3.5v10.9h2.8V59.5H17.4z"/>
<path id="パス_12209" class="st2" d="M54.6,59.5L54.6,59.5c-0.6,2.8-3.4,4.7-6.3,4.1c-2-0.4-3.6-2-4.1-4.1h-2.8v16.7h2.8V65.3
	l5.2,3.5l5.2-3.5v10.9h2.8V59.5H54.6z"/>
</svg>
