<?xml version="1.0" encoding="utf-8"?>
<!-- Generator: Adobe Illustrator 15.0.0, SVG Export Plug-In . SVG Version: 6.00 Build 0)  -->
<!DOCTYPE svg PUBLIC "-//W3C//DTD SVG 1.1//EN" "http://www.w3.org/Graphics/SVG/1.1/DTD/svg11.dtd">
<svg version="1.1" id="レイヤー_1" xmlns="http://www.w3.org/2000/svg" xmlns:xlink="http://www.w3.org/1999/xlink" x="0px"
	 y="0px" width="841.891px" height="595.281px" viewBox="0 0 841.891 595.281" enable-background="new 0 0 841.891 595.281"
	 xml:space="preserve">
<path id="パス_12202" fill="#FFFFFF" d="M641.362,280.177c0,17.074-3.104,34.149-10.09,49.672h170.745
	c6.985-38.03,5.433-77.612-3.104-115.642c-45.79,14.746-95.462-10.09-110.984-55.88c-10.865-33.373-0.776-69.074,24.836-92.358
	c-28.716-27.164-62.089-48.119-98.566-61.313l-85.373,148.237C593.243,160.656,640.586,215.76,641.362,280.177"/>
<path id="パス_12203" fill="#FFFFFF" d="M427.154,203.343c-40.358,0-77.611-18.627-102.447-50.448l-85.373,148.238
	c29.492,24.836,64.418,43.463,101.671,55.104c10.09-47.343,56.656-77.611,104-68.299c34.149,6.985,60.537,34.149,68.298,68.299
	c37.254-11.642,71.403-30.269,101.672-55.104l-85.373-148.238C504.765,184.716,466.736,203.343,427.154,203.343"/>
<path id="パス_12204" fill="#FFFFFF" d="M157.842,174.626c-20.955,35.701-63.642,52.776-103.223,39.582
	c-8.538,38.029-10.09,76.835-3.104,115.642H222.26c-27.164-65.194,3.104-140.478,68.298-167.642
	c10.866-4.656,21.731-7.761,33.373-9.313L239.334,4.657c-36.478,13.193-69.851,34.148-98.566,60.537
	C171.812,93.134,178.797,138.925,157.842,174.626"/>
<rect id="長方形_755" x="501.661" y="461.789" fill="#FFFFFF" width="21.731" height="129.611"/>
<path id="パス_12205" fill="#FFFFFF" d="M212.946,461.789V591.4h86.148v-21.731h-65.193v-43.463h54.328v-21.73h-54.328v-21.731
	h65.193v-21.731h-86.148V461.789z"/>
<path id="パス_12206" fill="#FFFFFF" d="M636.705,471.102c-12.418-6.985-25.611-10.09-39.582-9.313h-10.089l0,0h-21.731V591.4
	h37.254c10.865,0,21.73-2.328,31.82-7.762c10.09-5.433,17.851-13.193,23.283-22.507c6.209-10.09,9.313-21.731,8.537-33.373
	c0-10.865-2.328-21.731-6.984-31.82C655.332,485.848,646.795,477.311,636.705,471.102 M637.481,549.49
	c-3.881,6.209-8.537,10.865-15.522,13.97c-6.984,3.104-14.746,5.433-22.507,4.657h-12.418v-83.045h13.97
	c6.985,0,13.971,1.553,20.955,4.657c6.209,3.104,11.642,8.537,15.522,13.97C645.242,517.669,645.242,534.744,637.481,549.49"/>
<path id="パス_12207" fill="#FFFFFF" d="M756.226,460.236h-23.283L682.496,591.4h23.283l13.971-35.701h49.671l13.97,35.701h23.284
	L756.226,460.236L756.226,460.236z M728.287,533.968l16.298-43.463l16.299,43.463H728.287z"/>
<path id="パス_12208" fill="#FFFFFF" d="M149.304,461.789L149.304,461.789c-4.656,21.731-26.388,36.478-48.896,31.82
	c-15.521-3.104-27.939-15.522-31.82-31.82H47.634V591.4h20.955v-84.597l40.358,27.164l40.357-27.164V591.4h21.731V461.789H149.304z"
	/>
<path id="パス_12209" fill="#FFFFFF" d="M438.019,461.789L438.019,461.789c-4.656,21.731-26.388,36.478-48.896,31.82
	c-15.521-3.104-27.939-15.522-31.82-31.82h-21.731V591.4h21.731v-84.597l40.358,27.164l40.357-27.164V591.4h21.731V461.789H438.019z
	"/>
</svg>
